<?xml version="1.0" standalone="no"?>
<!DOCTYPE svg PUBLIC "-//W3C//DTD SVG 20010904//EN"
 "http://www.w3.org/TR/2001/REC-SVG-20010904/DTD/svg10.dtd">
<svg version="1.0" xmlns="http://www.w3.org/2000/svg"
 width="512.000000pt" height="512.000000pt" viewBox="0 0 512.000000 512.000000"
 preserveAspectRatio="xMidYMid meet">

<g transform="translate(0.000000,512.000000) scale(0.100000,-0.100000)"
fill="#000000" stroke="none">
<path d="M0 2560 l0 -2560 2560 0 2560 0 0 961 c0 618 -4 968 -10 980 -6 10
-17 16 -25 13 -8 -4 -12 -10 -9 -15 3 -5 1 -9 -5 -9 -6 0 -13 11 -17 25 -3 14
-11 25 -16 25 -12 0 -38 26 -38 38 0 6 -6 12 -14 15 -8 3 -20 16 -26 28 -9 17
-9 20 0 14 12 -8 10 7 -11 62 -12 32 -40 45 -55 25 -9 -13 -12 -9 -19 24 -5
21 -8 42 -7 46 1 4 -5 5 -13 2 -10 -4 -15 0 -15 15 0 12 -6 21 -13 21 -14 0
-53 41 -49 52 1 5 -7 8 -18 8 -12 0 -24 10 -29 23 -7 18 -17 24 -41 25 -28 1
-30 -1 -18 -15 11 -13 8 -13 -14 1 -25 16 -42 46 -19 31 5 -3 3 8 -6 25 -13
27 -17 29 -31 18 -12 -10 -14 -10 -8 -1 4 8 2 13 -6 14 -7 0 -4 4 7 9 17 8 15
9 -10 8 -16 -1 -46 7 -65 17 -23 13 -51 18 -83 17 -26 -2 -53 1 -60 5 -14 9
-30 12 -79 17 -20 2 -51 11 -70 20 -18 8 -48 17 -66 20 -19 2 -36 7 -40 10 -3
3 -11 1 -19 -5 -7 -6 -22 -9 -33 -6 -11 3 -18 1 -14 -4 3 -5 -1 -9 -8 -9 -8 0
-31 -9 -53 -20 -22 -11 -45 -20 -53 -20 -7 0 -32 -10 -55 -22 -23 -12 -53 -23
-66 -25 -13 -1 -31 -5 -40 -9 -9 -4 -19 -8 -23 -8 -7 -1 -27 -16 -69 -53 -9
-8 -29 -16 -45 -19 -16 -3 -32 -10 -36 -17 -4 -6 -10 -9 -13 -6 -10 11 67 80
84 75 16 -4 121 103 121 124 0 6 -73 10 -204 10 -112 0 -216 2 -232 5 -25 5
-32 1 -53 -30 -13 -20 -80 -95 -147 -168 -68 -73 -130 -146 -139 -163 -8 -17
-40 -53 -70 -79 -53 -45 -57 -46 -78 -32 -93 65 -131 95 -141 112 -6 11 -19
32 -28 47 -13 18 -18 46 -18 95 0 45 -5 76 -15 90 -10 15 -12 24 -5 28 8 5 7
11 -1 21 -8 10 -8 14 0 14 6 0 10 11 9 24 -1 14 -5 23 -9 20 -4 -2 -9 2 -12 9
-3 6 -27 23 -53 37 -27 14 -51 28 -54 31 -3 3 -23 12 -45 19 -22 7 -62 23 -90
35 -27 13 -67 26 -88 29 -45 6 -102 -16 -109 -41 -3 -12 -30 -26 -83 -42 l-77
-25 93 -29 c52 -16 95 -32 97 -36 1 -4 88 -5 193 -3 l191 5 -7 -94 c-4 -52
-11 -101 -16 -110 -7 -14 -23 -16 -106 -12 l-98 4 60 -56 c72 -68 262 -214
364 -280 142 -92 410 -205 686 -290 66 -20 128 -39 137 -43 14 -6 1 -25 -72
-104 l-90 -96 -57 15 c-106 27 -307 106 -420 165 -360 185 -698 480 -907 791
-32 48 -60 87 -61 87 -1 0 -24 -37 -50 -82 -27 -46 -75 -111 -108 -145 l-59
-62 48 -68 c222 -316 566 -583 989 -768 66 -29 172 -77 235 -107 63 -30 141
-65 173 -77 31 -13 57 -26 57 -30 0 -9 -78 -88 -114 -116 -18 -14 -43 -25 -55
-25 -32 0 -258 92 -402 164 -168 84 -240 127 -389 232 -164 115 -248 184 -360
296 -276 277 -445 550 -575 930 l-44 128 92 60 92 59 8 -27 c5 -15 20 -36 34
-46 24 -18 27 -18 38 -3 14 20 138 21 847 10 l428 -6 0 -23 c0 -18 12 -30 51
-49 l50 -26 71 68 c96 91 176 176 177 188 1 6 -26 24 -61 40 -83 40 -88 52
-52 105 46 68 72 65 224 -29 69 -43 131 -81 139 -86 11 -6 13 -4 8 8 -3 10 -2
17 4 17 6 0 6 7 -1 19 -5 11 -10 29 -10 40 0 12 -6 30 -12 42 -11 17 -10 22 3
32 8 7 18 23 22 35 5 22 4 23 -12 8 -21 -19 -36 -9 -18 12 8 11 8 14 0 9 -6
-4 -15 -2 -19 4 -5 9 1 10 19 5 30 -7 38 6 26 48 -5 16 -6 33 -2 39 3 6 2 8
-3 5 -19 -12 -84 -18 -84 -8 0 6 5 10 12 10 6 0 3 7 -8 16 -10 8 -13 12 -5 8
11 -5 13 -3 8 10 -4 10 -7 29 -7 42 0 15 -6 24 -15 24 -8 0 -15 7 -15 15 0 8
6 12 14 9 8 -3 20 1 27 9 14 14 49 12 49 -4 0 -16 20 -9 27 9 4 9 26 36 50 59
24 22 43 46 43 53 0 6 5 8 10 5 6 -3 10 -2 10 3 0 15 -26 22 -38 10 -11 -11
-83 -15 -116 -6 -12 3 -40 -9 -70 -29 -58 -38 -80 -39 -84 -3 -2 24 45 90 65
90 14 0 48 70 37 78 -5 4 -8 6 -7 3 3 -6 -44 -41 -55 -41 -5 0 -21 9 -34 20
-42 32 -227 134 -323 177 -109 49 -310 115 -425 139 -110 23 -496 27 -605 5
-108 -21 -298 -86 -413 -141 -58 -28 -106 -50 -107 -50 -1 0 7 45 19 101 l21
101 110 53 c131 64 289 120 365 130 30 4 84 13 120 21 110 23 330 14 515 -22
259 -49 573 -195 749 -347 59 -51 59 -51 74 -29 8 12 18 22 23 22 4 0 28 20
53 45 25 24 64 57 87 72 34 22 42 24 50 12 8 -10 8 -7 4 11 -4 14 -23 39 -44
56 -20 18 -37 40 -38 50 -1 11 -4 28 -7 39 -2 11 -5 27 -6 35 -1 11 -3 11 -7
2 -2 -6 -9 -9 -14 -6 -6 4 -6 11 1 20 9 10 7 20 -10 41 -17 21 -20 35 -15 65
4 24 3 38 -4 38 -6 0 -8 7 -5 15 4 8 -5 30 -18 48 -27 35 -42 67 -39 80 1 5
-4 7 -11 5 -17 -6 -37 21 -38 50 0 14 6 22 18 23 14 0 14 2 -3 8 -11 5 -24 6
-29 3 -5 -3 -6 0 -2 6 4 7 14 12 22 12 9 0 1 19 -25 58 -54 79 -63 105 -46
128 17 23 19 34 5 34 -5 0 -10 -8 -10 -17 0 -14 -2 -15 -12 -4 -11 10 -10 15
4 25 13 10 15 15 6 24 -9 9 -9 12 1 12 11 0 11 3 1 15 -10 12 -8 13 10 10 14
-3 20 0 17 8 -2 7 -14 14 -28 15 -25 4 -53 36 -55 64 -1 9 -9 24 -18 33 -9 10
-22 37 -28 61 l-12 44 -1613 0 -1613 0 0 -2560z m3456 1837 c-3 -25 -12 -30
-35 -17 -20 10 -21 12 -4 34 14 18 20 20 30 11 6 -7 11 -19 9 -28z m-46 -112
c0 -9 -6 -12 -15 -9 -8 4 -12 10 -9 15 8 14 24 10 24 -6z m42 -44 c-4 -10 -1
-12 7 -6 10 6 11 3 2 -14 -10 -17 -9 -21 3 -21 8 0 18 -4 21 -10 4 -6 -2 -7
-17 -1 -13 5 -22 14 -21 19 1 6 -4 13 -12 16 -9 3 -15 -1 -15 -9 0 -8 -7 -15
-16 -15 -13 0 -14 3 -5 14 8 10 9 16 1 21 -18 11 -1 24 29 22 20 -1 27 -6 23
-16z m57 -162 c-14 -8 -29 -3 -29 11 0 4 9 6 21 3 15 -4 17 -8 8 -14z m-1505
-191 c22 -31 20 -59 -4 -65 -11 -3 -20 -11 -20 -19 0 -8 -6 -11 -16 -7 -14 5
-15 3 -5 -15 10 -19 9 -22 -9 -22 -13 0 -18 4 -14 11 5 8 1 8 -14 0 -14 -7
-23 -8 -27 -1 -4 7 -14 6 -28 -2 -12 -7 -31 -13 -42 -15 -10 -2 -43 -15 -73
-29 -29 -14 -62 -26 -72 -27 -10 -1 -16 -5 -14 -9 5 -7 -18 -12 -38 -9 -5 0
-8 -3 -8 -8 0 -10 -38 -24 -57 -22 -7 1 -13 -3 -13 -8 0 -10 -51 -41 -68 -41
-21 0 -6 33 27 61 20 17 45 38 56 48 149 128 282 195 397 200 17 1 32 -7 42
-21z m-657 -60 l66 -52 -54 -51 c-146 -135 -267 -292 -345 -447 -63 -126 -134
-321 -134 -371 0 -8 36 -38 80 -67 43 -28 84 -58 91 -66 20 -24 27 -16 50 54
37 113 115 270 168 335 160 200 373 362 586 448 228 91 444 117 662 80 253
-43 275 -49 388 -105 61 -30 145 -70 188 -90 43 -19 104 -51 136 -71 50 -30
60 -41 71 -79 10 -37 9 -48 -4 -75 -9 -17 -23 -31 -31 -31 -14 0 -45 9 -310
94 -254 81 -316 91 -590 90 -145 0 -269 -5 -314 -12 -106 -18 -211 -63 -326
-140 -91 -61 -150 -112 -365 -316 -111 -105 -131 -179 -75 -271 7 -11 16 -38
20 -60 4 -22 13 -54 22 -72 14 -31 14 -31 -31 -73 -33 -31 -62 -75 -112 -176
-36 -74 -71 -134 -78 -134 -8 0 -8 -2 0 -8 9 -5 8 -11 -2 -20 -8 -7 -14 -10
-14 -7 0 4 -6 0 -14 -7 -22 -22 -61 -52 -82 -64 -23 -14 -32 -43 -33 -116 -1
-32 -5 -58 -10 -58 -5 0 -18 12 -29 27 l-21 28 -21 -23 c-21 -22 -22 -27 -10
-105 14 -100 77 -291 133 -409 46 -96 33 -83 337 -309 74 -56 149 -116 165
-133 52 -57 340 -172 526 -210 304 -63 576 -34 813 85 55 27 103 48 107 47 8
-3 -42 -127 -66 -160 -17 -26 -68 -46 -229 -94 -163 -47 -285 -65 -445 -65
-267 0 -494 55 -731 177 -180 93 -417 280 -552 437 l-62 72 -100 5 -101 5 3
55 c2 30 6 63 8 72 4 12 -16 40 -58 85 -35 38 -97 113 -138 168 -40 55 -86
116 -101 137 l-28 36 152 97 c177 114 317 215 317 230 0 5 -7 51 -15 100 -9
50 -19 153 -22 230 -4 77 -10 129 -13 115 -7 -33 -50 -81 -64 -72 -6 4 -15 7
-21 7 -17 0 -17 190 0 309 8 62 28 165 44 230 27 113 28 121 15 184 -7 35 -16
74 -20 86 -5 17 1 14 30 -13 21 -21 36 -44 36 -59 0 -13 4 -20 10 -17 6 3 10
16 10 28 0 31 89 194 158 291 58 82 281 316 301 316 6 0 41 -23 78 -52z m3092
-1383 c2 -2 -111 -118 -251 -257 -140 -139 -294 -298 -341 -354 -109 -126
-123 -134 -169 -103 -78 53 -288 225 -288 234 0 6 109 119 243 251 l242 239
280 -3 c154 -2 282 -5 284 -7z m-846 -165 c-9 -11 -19 -17 -21 -15 -6 6 18 35
29 35 5 0 1 -9 -8 -20z m1511 -346 c3 -8 2 -12 -4 -9 -6 3 -10 10 -10 16 0 14
7 11 14 -7z m-518 -174 l26 -39 -25 -43 c-32 -55 -267 -284 -377 -369 -166
-127 -336 -232 -391 -243 -32 -6 -136 -38 -156 -48 -11 -6 -27 -8 -35 -5 -8 4
-7 6 5 6 23 1 77 38 77 53 0 17 49 57 78 64 30 7 104 44 113 57 3 4 13 5 22 1
14 -5 17 0 17 26 0 35 16 71 38 84 12 7 12 10 1 18 -10 7 -7 7 9 3 13 -4 22
-2 22 4 0 6 7 11 16 11 8 0 13 4 9 9 -3 5 5 17 17 25 12 9 18 16 13 16 -6 0
-5 4 2 8 8 5 5 20 -13 55 -13 27 -24 53 -24 58 0 5 -6 16 -12 24 -11 11 -17 9
-40 -12 -14 -14 -31 -22 -37 -19 -14 9 -14 46 -1 80 8 23 15 26 54 26 24 0 46
-5 48 -11 2 -6 41 30 87 80 46 50 88 91 94 91 6 0 41 -29 77 -65 l65 -65 80
80 c44 44 87 80 97 80 10 0 30 -18 44 -40z m-2535 -305 c18 -30 37 -55 41 -55
4 0 8 -7 8 -17 0 -9 3 -14 6 -10 8 7 70 -53 67 -65 -3 -9 11 -11 40 -8 9 1 34
-9 54 -21 20 -13 33 -17 29 -10 -6 9 -3 12 10 9 11 -2 18 -10 16 -17 -1 -7 2
-10 7 -7 5 4 16 -1 25 -10 10 -10 27 -14 46 -10 18 2 33 -1 37 -8 5 -7 17 -18
28 -25 19 -12 19 -12 1 -6 -11 3 -40 8 -65 11 -70 8 -157 32 -250 70 -47 19
-91 34 -98 34 -7 0 -13 4 -13 8 0 5 -6 9 -12 9 -7 0 -30 7 -50 16 -35 15 -37
18 -28 41 19 51 51 106 61 106 6 0 7 5 4 10 -3 6 -4 10 -2 10 3 0 20 -25 38
-55z"/>
<path d="M3427 4389 c7 -7 15 -10 18 -7 3 3 -2 9 -12 12 -14 6 -15 5 -6 -5z"/>
<path d="M732 1703 c-1 -56 -5 -73 -16 -73 -8 0 -20 -16 -27 -37 -10 -32 -10
-38 7 -50 41 -30 46 -16 41 123 -2 80 -3 89 -5 37z"/>
<path d="M3420 4553 c0 -12 5 -25 10 -28 13 -8 13 15 0 35 -8 12 -10 11 -10
-7z"/>
<path d="M3530 4314 c0 -3 7 -12 15 -20 16 -17 18 -14 9 10 -6 15 -24 23 -24
10z"/>
<path d="M3706 3995 c4 -11 7 -28 8 -37 0 -13 3 -14 14 -6 7 6 9 14 4 17 -5 3
-14 15 -21 26 l-13 20 8 -20z"/>
<path d="M3447 3809 c4 -13 8 -18 11 -10 2 7 -1 18 -6 23 -8 8 -9 4 -5 -13z"/>
<path d="M3668 3633 c7 -3 16 -2 19 1 4 3 -2 6 -13 5 -11 0 -14 -3 -6 -6z"/>
<path d="M3580 3494 c0 -8 5 -12 10 -9 6 4 8 11 5 16 -9 14 -15 11 -15 -7z"/>
<path d="M4160 3294 c0 -11 -5 -14 -17 -10 -13 5 -56 -32 -170 -146 -84 -84
-153 -158 -153 -164 0 -18 106 -74 140 -74 18 0 33 6 36 15 4 9 19 15 35 15
29 0 40 -15 17 -23 -7 -2 14 -10 47 -17 67 -15 115 -36 115 -50 0 -17 17 -11
50 16 17 15 52 31 78 35 49 9 142 48 142 59 0 4 -9 15 -20 25 -11 10 -20 24
-20 32 0 8 -4 11 -10 8 -5 -3 -10 -2 -10 3 0 9 -21 18 -60 28 -10 2 -21 -11
-32 -36 -17 -42 -68 -80 -106 -80 -63 0 -122 61 -122 125 0 106 125 161 203
87 21 -20 27 -22 27 -10 0 22 -26 47 -56 54 -25 7 -42 44 -28 65 4 8 3 9 -4 5
-7 -4 -12 -1 -12 8 0 10 -6 13 -17 9 -13 -5 -15 -2 -10 11 4 10 3 15 -3 11 -6
-3 -10 -1 -10 4 0 6 -7 11 -15 11 -8 0 -15 -7 -15 -16z"/>
<path d="M3600 2982 c0 -10 47 -45 74 -54 21 -8 21 -8 1 10 -11 9 -19 26 -17
37 2 16 1 17 -7 5 -9 -12 -14 -13 -31 -2 -11 7 -20 9 -20 4z"/>
<path d="M4525 2929 c-5 -16 -13 -20 -31 -16 -20 4 -34 -9 -90 -77 -36 -44
-72 -89 -80 -98 -7 -10 -10 -18 -4 -18 5 0 12 5 15 10 3 6 15 10 25 10 15 0
20 -10 26 -45 4 -28 11 -45 20 -45 19 0 64 63 64 91 0 14 6 31 13 38 8 9 8 12
0 7 -8 -5 -9 1 0 24 7 18 18 29 27 27 9 -1 14 5 14 16 -1 9 3 17 10 17 6 0 4
5 -4 10 -13 8 -12 10 4 10 14 0 16 3 7 14 -6 7 -9 21 -5 30 3 9 4 16 1 16 -3
0 -9 -9 -12 -21z m-15 -36 c0 -5 -5 -15 -10 -23 -7 -12 -9 -10 -7 8 1 19 17
33 17 15z"/>
<path d="M3667 2842 c-30 -32 -27 -50 5 -24 23 20 42 52 30 52 -4 0 -20 -13
-35 -28z"/>
<path d="M3210 2821 c0 -4 8 -19 19 -32 10 -13 24 -41 32 -61 13 -38 23 -46
34 -28 3 6 1 10 -4 10 -6 0 -11 9 -11 21 0 11 4 17 10 14 7 -4 7 3 0 20 -6 15
-7 31 -4 37 4 6 0 14 -7 19 -18 11 -69 12 -69 0z"/>
<path d="M1607 2799 c7 -7 15 -10 18 -7 3 3 -2 9 -12 12 -14 6 -15 5 -6 -5z"/>
</g>
</svg>
